<?xml version="1.0" encoding="UTF-8"?>
<!DOCTYPE svg PUBLIC "-//W3C//DTD SVG 1.1//EN" "http://www.w3.org/Graphics/SVG/1.1/DTD/svg11.dtd">
<!-- Creator: CorelDRAW Home & Student 2018 -->
<svg xmlns="http://www.w3.org/2000/svg" xml:space="preserve" width="26.387mm" height="28.9189mm" version="1.1" style="shape-rendering:geometricPrecision; text-rendering:geometricPrecision; image-rendering:optimizeQuality; fill-rule:evenodd; clip-rule:evenodd"
viewBox="0 0 398.86 437.13"
 xmlns:xlink="http://www.w3.org/1999/xlink">
 <defs>
  <style type="text/css">
   <![CDATA[
    .str0 {stroke:black;stroke-width:3.02;stroke-miterlimit:22.9256}
    .fil2 {fill:none}
    .fil1 {fill:black}
    .fil0 {fill:#B3B3B3}
   ]]>
  </style>
 </defs>
 <g id="Layer_x0020_1">
  <metadata id="CorelCorpID_0Corel-Layer"/>
  <polygon class="fil0 str0" points="95.33,16.62 394.66,12.66 389.38,395.06 311.59,430.66 13.58,431.98 17.53,48.27 "/>
  <g id="_534606448">
   <path class="fil1" d="M387.76 12.3c-14.33,133.78 -5.16,211.06 -1.95,335.32 0.14,5.56 0.55,19.9 0.24,30.33 -0.44,0.77 -0.7,1.66 -0.74,2.6 -0.2,4.57 -1.94,11.52 2.08,14.1 4.27,2.75 6.96,0.54 8.61,-4.12l0.2 0.13 0.08 -1c4,-13.02 1.05,-42.04 1.05,-42.04 -3.14,-122.02 -12.15,-200.06 1.12,-331.03 1.19,-2.95 -0.24,-6.3 -3.2,-7.49 -2.95,-1.19 -6.3,0.24 -7.49,3.2z"/>
  </g>
  <path class="fil2" d="M393.1 14.45c-10.73,26.7 -5.8,106.85 -6.6,137.95 -0.65,25.37 0.14,45.26 -1.96,70.89 -1.73,21.18 5.9,34.69 4.93,61.58 -0.64,17.83 2.09,42.28 2.09,62.76 0,3.42 0.79,40.95 -1.07,42.19 0.28,-1.9 0.48,-7.12 0.55,-9.02"/>
  <g id="_534607048">
   <path class="fil1" d="M383.68 12.67c-34.72,18.76 -46.85,23.62 -80.18,48.5 -2.13,2.36 -1.95,6 0.41,8.13 2.36,2.13 6,1.95 8.13,-0.41 31.5,-23.2 48.41,-30.03 80.25,-48.58 2.11,-2.38 1.89,-6.02 -0.49,-8.13 -2.38,-2.11 -6.02,-1.89 -8.13,0.49z"/>
  </g>
  <path class="fil2" d="M387.99 16.49c-4.68,5.28 -26.74,12.85 -35.72,18.91 -11.96,8.06 -34.41,18.47 -44.5,29.63"/>
  <g id="_534607360">
   <path class="fil1" d="M311.57 62.9c-107.2,-3 -172.83,-17.31 -287.43,-10.45 -2.3,-1.41 -5.35,-1.05 -7.25,1.01l-0.09 0.1c-20.24,16.32 39.18,8.33 39.23,8.33 97.41,-3.04 165.19,10.07 257.14,12.41 3.15,-0.44 5.34,-3.36 4.9,-6.51 -0.44,-3.15 -3.36,-5.34 -6.51,-4.9z"/>
  </g>
  <path class="fil2" d="M312.37 68.61c-22.13,3.12 -80.56,-4.04 -102.36,-8.18 -21.64,-4.11 -167.83,-6.8 -190.23,-2 0.88,-0.47 0.7,-0.35 1.36,-1.07"/>
  <g id="_534254136">
   <path class="fil1" d="M386.54 8.18c-106.22,6.74 -196.45,-4.25 -301.05,-3.5 -2.86,-1.4 -6.31,-0.22 -7.71,2.63 -1.4,2.86 -0.22,6.31 2.63,7.71 101.91,3.93 204.31,11.25 305.95,4.68 3.18,0.05 5.8,-2.49 5.84,-5.67 0.05,-3.18 -2.49,-5.8 -5.67,-5.84z"/>
  </g>
  <path class="fil2" d="M386.46 13.94c-18.18,-0.26 -36.62,6.66 -60.67,3.71 -28.47,-3.49 -70.46,0.93 -101.81,-3.33 -27.21,-3.69 -57.88,0.02 -88.9,-3.82 -8.31,-1.03 -49.4,0.69 -52.12,-0.64"/>
  <g id="_534254880">
   <path class="fil1" d="M96 1.04c-0,0 -128.04,76.68 -83.97,70.75l0.82 -0.17c1.86,-0.47 3.27,-1.8 3.93,-3.46 17.6,-14.62 69.24,-47.42 85.83,-57.7 2.6,-1.83 3.24,-5.42 1.41,-8.02 -1.83,-2.6 -5.42,-3.24 -8.02,-1.41z"/>
  </g>
  <path class="fil2" d="M99.31 5.76c-17.36,12.17 -27.88,15.22 -47.39,31.21 -5.36,4.4 -46.78,30.7 -40.5,29.08"/>
  <g id="_534255480">
   <path class="fil1" d="M311.18 76.88c0,-0 -3.07,-5.11 -3.07,-5.11 -1.64,-2.73 -5.17,-3.61 -7.9,-1.98 -2.73,1.64 -3.61,5.17 -1.98,7.9 0,0 3.07,5.11 3.07,5.11 1.64,2.73 5.17,3.61 7.9,1.98 2.73,-1.64 3.61,-5.17 1.98,-7.9z"/>
  </g>
  <line class="fil2" x1="306.24" y1="79.85" x2="303.18" y2= "74.74" />
  <g id="_534255216">
   <path class="fil1" d="M297.42 72.18c2.5,88.57 6.66,189.81 0.71,276.58 -1.06,15.46 1.5,55.26 1.85,76.48 0,3.18 2.58,5.76 5.76,5.76 3.18,0 5.76,-2.58 5.76,-5.76 -0.33,-20.46 -2.96,-59.86 -1.98,-74.76 6.05,-92.19 2.05,-185.73 -0.58,-278.3 0,-3.18 -2.58,-5.76 -5.76,-5.76 -3.18,0 -5.76,2.58 -5.76,5.76z"/>
  </g>
  <path class="fil2" d="M303.18 72.18c0,27.65 2.41,48.93 1.49,78.26 -1.52,48.4 1.08,94.8 2.64,142.89 0.85,26.18 0.35,30.86 -3.49,56.29 -2.41,15.95 5.97,53.54 2.25,64 -0.7,1.98 -0.34,9.4 -0.34,11.62"/>
  <g id="_534256368">
   <path class="fil1" d="M389.43 384.88c-56.16,31.12 -34.2,20.4 -83.32,39.09 -3.88,1.48 -6.59,3.33 -6.64,7.72 0.17,3.18 2.89,5.61 6.06,5.44 1.73,-0.09 3.25,-0.95 4.24,-2.22l0.33 -0.14c50.28,-18.77 30.11,-9.48 84.64,-39.67 2.82,-1.47 3.92,-4.94 2.46,-7.77 -1.47,-2.82 -4.94,-3.92 -7.77,-2.46z"/>
  </g>
  <path class="fil2" d="M392.08 389.99c-22.43,11.64 -25.75,14.2 -46.16,28.1 -9,6.13 -40.98,9.76 -40.7,13.28"/>
  <g id="_534256704">
   <path class="fil1" d="M12.87 56.6c-3.86,69.29 4.57,93.97 2.95,159.07 -1.48,59.3 -3.79,142.53 -8.11,202.07 -0.33,0.73 -0.52,1.54 -0.52,2.39 0.02,3.65 -0.27,2.67 0.95,6.25l9.52 0.38c0.19,-0.41 0.42,-2.29 0.68,-5.33 0.37,0.9 0.33,0.55 0.4,1.26 -0.03,-1.42 -0.02,-0.57 -0.03,-2.55 0,-0.46 -0.05,-0.91 -0.16,-1.34 2.77,-36.83 8.42,-188.29 8.78,-202.81 1.61,-65.14 -6.76,-89.35 -3.05,-157.86 0.42,-3.15 -1.8,-6.05 -4.95,-6.47 -3.15,-0.42 -6.05,1.8 -6.47,4.95z"/>
  </g>
  <path class="fil2" d="M18.58 57.36c-0.12,0.87 -2.56,47.46 -2.56,47.65 0.66,24.81 -0.17,23.08 4.26,47.9 3.53,19.75 0.96,106.15 -3.11,125.65 -5.95,28.55 3.64,94.58 -3.07,127.78 -0.36,1.8 -1.15,25.41 -1.15,13.8"/>
  <g id="_534258024">
   <path class="fil1" d="M302.41 425.67c-103.36,-9.7 -185.98,-5.9 -288.84,-4.42 -0.69,0.01 -2,0.01 -3.16,-0.05 -0.14,-0.14 -0.29,-0.27 -0.44,-0.4 -2.46,-2.02 -6.09,-1.66 -8.11,0.8 -6.56,9.07 5.84,11.25 11.84,11.17 102.29,-1.41 184.24,-5.31 287.17,4.32 3.15,0.42 6.05,-1.79 6.48,-4.94 0.42,-3.15 -1.79,-6.05 -4.94,-6.48z"/>
  </g>
  <path class="fil2" d="M301.64 431.37c-15.4,-2.08 -35.35,-2.82 -52.15,-4.47 -27.14,-2.67 -64.97,0.47 -92.92,-2.55 -28.21,-3.05 -103.24,-1.68 -132.93,2.09 -1.13,0.14 -19.78,1.76 -17.33,-1.2"/>
  <g id="_534258240">
   <path class="fil1" d="M386.15 41.46c-26.73,19.79 -58.84,35.94 -78.7,54.4 -3.01,1.02 -4.62,4.3 -3.6,7.31 1.02,3.01 4.3,4.62 7.31,3.6 27.4,-21.68 51.45,-33.55 81.73,-55.97 2.58,-1.86 3.16,-5.46 1.3,-8.04 -1.86,-2.58 -5.46,-3.16 -8.04,-1.3z"/>
  </g>
  <path class="fil2" d="M389.53 46.12c-21.37,15.44 -35.58,28.38 -61.18,40.32 -4.38,2.04 -18.97,14.84 -19.04,14.86"/>
  <g id="_534258840">
   <path class="fil1" d="M291.42 100.36c-18.61,-0.86 -214.91,-15.57 -264.83,-9.37 -1.06,-1.27 -2.65,-2.09 -4.43,-2.09 -0,0 -1.22,0 -1.23,0l0 3.01c-3.3,0.73 -5.3,1.63 -5.76,2.75 1.72,4.14 1.36,5.54 5.76,5.73l0 0.02c91.4,1.46 182.1,7.68 273.56,11.03 3.06,-0.85 4.86,-4.02 4.01,-7.09 -0.85,-3.06 -4.02,-4.86 -7.09,-4.01z"/>
  </g>
  <path class="fil2" d="M292.96 105.9c-17.8,4.94 -87.7,-9.1 -121.6,-5.62 -16.88,1.73 -62.82,-4.6 -85.88,-4.6 -21.85,0 -43.07,-1.02 -64.54,-1.02l1.23 0"/>
  <g id="_534259008">
   <path class="fil1" d="M151.29 103.86c0.36,105.59 -6.38,171.89 1.8,284.6 0.86,11.86 0.56,11.13 -0.09,22.3 -1.5,2.8 -0.45,6.29 2.35,7.8 2.8,1.5 6.29,0.45 7.8,-2.35 2.2,-17.42 2.55,-12.99 1.28,-29.81 -8.46,-111.49 -1.27,-178.11 -1.62,-282.54 0,-3.18 -2.58,-5.76 -5.76,-5.76 -3.18,0 -5.76,2.58 -5.76,5.76z"/>
  </g>
  <path class="fil2" d="M157.05 103.86c0,24.88 1.28,42.56 -2.93,67.44 -3.91,23.05 1.31,70.59 -1.02,99.03 -2.67,32.51 -0.24,84.65 5.66,117.09 0.68,3.73 1.14,22.65 -0.69,26.06"/>
  <g id="_534260328">
   <path class="fil1" d="M168.24 205.03c-0.55,10.18 -0.71,21.36 -1.53,31.67 -0.39,0.77 -0.6,1.64 -0.6,2.57 0.04,3.38 -0.15,1.49 0.87,5.64l9.83 0.22c2.42,-5.75 2.51,-31.94 2.77,-38.05 0.56,-3.13 -1.52,-6.12 -4.65,-6.69 -3.13,-0.56 -6.12,1.52 -6.69,4.65z"/>
  </g>
  <path class="fil2" d="M173.91 206.05c-0.1,0.57 -2.04,47.65 -2.04,33.21"/>
  <g id="_534260736">
   <path class="fil1" d="M136.98 205.54c-6.5,45.91 -15.71,44.21 25.03,47.74 2.26,0.93 4.94,0.34 6.6,-1.62 2.05,-2.44 1.73,-6.07 -0.71,-8.11 -6.95,-4.15 -19.04,-0.31 -25.49,-3.63 4.78,-18.03 2.3,-7.02 6.08,-34.37 0,-3.18 -2.58,-5.76 -5.76,-5.76 -3.18,0 -5.76,2.58 -5.76,5.76z"/>
  </g>
  <path class="fil2" d="M142.74 205.54c0,13.81 -6.37,34.51 -6.18,35.81 1.2,8.09 25.67,4.97 27.63,6.6"/>
  <g id="_534253104">
   <path class="fil1" d="M169.06 201.36c-1.02,-0.02 -50.17,-3.77 -21.67,13.03 1.14,0.67 1.74,0.77 3,0.97 2.44,0.22 4.66,-1.11 5.69,-3.18 4,0.68 5.32,0.51 14.5,0.6 3.15,-0.42 5.37,-3.31 4.95,-6.47 -0.42,-3.15 -3.31,-5.37 -6.47,-4.95z"/>
  </g>
  <path class="fil2" d="M169.82 207.07c-12.68,1.69 -28.38,-5.89 -21.68,-0.18 1.58,1.34 1.57,2.63 2.77,2.73"/>
 </g>
</svg>
