<?xml version="1.0" encoding="UTF-8"?>
<!DOCTYPE svg PUBLIC "-//W3C//DTD SVG 1.1//EN" "http://www.w3.org/Graphics/SVG/1.1/DTD/svg11.dtd">
<!-- Creator: CorelDRAW Home & Student 2018 -->
<svg xmlns="http://www.w3.org/2000/svg" xml:space="preserve" width="11.992mm" height="18.1409mm" version="1.1" style="shape-rendering:geometricPrecision; text-rendering:geometricPrecision; image-rendering:optimizeQuality; fill-rule:evenodd; clip-rule:evenodd"
viewBox="0 0 55.98 84.69"
 xmlns:xlink="http://www.w3.org/1999/xlink">
 <defs>
  <style type="text/css">
   <![CDATA[
    .str1 {stroke:black;stroke-width:3.5;stroke-miterlimit:22.9256}
    .str2 {stroke:black;stroke-width:0.36;stroke-miterlimit:22.9256}
    .str0 {stroke:#B3B3B3;stroke-width:0.36;stroke-miterlimit:22.9256}
    .fil1 {fill:none}
    .fil2 {fill:black}
    .fil0 {fill:#B3B3B3}
   ]]>
  </style>
 </defs>
 <g id="Layer_x0020_1">
  <metadata id="CorelCorpID_0Corel-Layer"/>
  <path class="fil0 str0" d="M53.4 71.75l0.61 -70.3 -9.13 9.41 0 73.25 8.52 -12.37zm0.61 -70.3l-39.26 1.4 -10.35 8.01 40.49 0 9.13 -9.41zm-50.03 9.41l40.9 0 0 73.25 -40.9 0 0 -73.25z"/>
  <g id="_873404688">
   <path class="fil1 str1" d="M3.89 10.74c-0.2,18.11 -0.77,33.35 -0.14,51.72 0.11,3.35 0.61,19.82 0.61,17.5"/>
   <path class="fil1 str1" d="M45.86 9.5c-0.69,2.75 0.18,53.82 -1.04,63.91 -0.51,4.2 2.31,8.55 -0.5,8.4"/>
   <path class="fil1 str1" d="M4.2 82.43c6.05,-1.43 37.72,0.77 37.63,-0.62"/>
   <path class="fil1 str1" d="M6.52 71.13c9.09,-0.86 34.17,0.75 38.56,-1.24"/>
   <path class="fil1 str1" d="M16.59 2.07c-0.87,0.26 -11.55,7.08 -12.7,8.67 8.12,-1.35 35.71,1.31 41.02,-0.34 -0.04,-0.36 -0.18,-0.18 -0.14,-0.59 1.16,-5.21 12.3,-7.36 7.28,-6.5"/>
   <path class="fil1 str1" d="M15.23 2.8c1.62,-0.52 38.94,0.48 37.13,-1.67"/>
   <path class="fil1 str1" d="M53.34 3.13c1.38,2.27 -0.39,56.47 0.89,66.92 0.01,0.05 -0.01,3.58 -0.01,2.48"/>
   <path class="fil1 str1" d="M46.79 81.81c3.26,-2.14 6.95,-9.1 7.12,-11.3"/>
   <rect class="fil2 str1" x="13.34" y="19.41" width="16.57" height="6.19"/>
   <path class="fil1 str1" d="M46.48 68.81c0.75,-0.65 6.04,-6.22 6.19,-7.12"/>
   <line class="fil1 str2" x1="44.31" y1="81.81" x2="45.24" y2= "83.21" />
   <line class="fil1 str2" x1="16.59" y1="2.07" x2="16.13" y2= "0.36" />
  </g>
 </g>
</svg>
