<?xml version="1.0" encoding="UTF-8"?>
<!DOCTYPE svg PUBLIC "-//W3C//DTD SVG 1.1//EN" "http://www.w3.org/Graphics/SVG/1.1/DTD/svg11.dtd">
<!-- Creator: CorelDRAW Home & Student 2018 -->
<svg xmlns="http://www.w3.org/2000/svg" xml:space="preserve" width="112.475mm" height="60.6183mm" version="1.1" style="shape-rendering:geometricPrecision; text-rendering:geometricPrecision; image-rendering:optimizeQuality; fill-rule:evenodd; clip-rule:evenodd"
viewBox="0 0 138737.83 74772.5"
 xmlns:xlink="http://www.w3.org/1999/xlink">
 <defs>
  <style type="text/css">
   <![CDATA[
    .str0 {stroke:#99CCCC;stroke-width:246.7;stroke-miterlimit:22.9256}
    .str1 {stroke:black;stroke-width:93.99;stroke-miterlimit:22.9256}
    .fil2 {fill:none}
    .fil1 {fill:black}
    .fil0 {fill:#99CCCC}
   ]]>
  </style>
 </defs>
 <g id="Layer_x0020_1">
  <metadata id="CorelCorpID_0Corel-Layer"/>
  <polygon class="fil0 str0" points="131379.53,27128.67 130559.01,56179.87 98044.02,72293.54 4119.51,69131.47 4550.25,4628.2 99660.89,8836.16 "/>
  <g id="_861980992">
   <path class="fil1 str1" d="M131050.8 25910.72c-417.79,8439.59 -1140.61,15548.11 -950.53,24027.41 25.41,1134.45 87.33,3092.87 -164.06,4233.49 196.74,-407.18 432.96,-586.53 680.4,-623.9 -258.54,108.79 -440.24,364.38 -440.24,662.51 -446.16,578.88 -220.18,227.95 -613.91,1091.15 153.2,384.36 231.53,600.34 617,838.9 3157.38,1953.24 2724.18,-5607.6 2709.5,-6265.8 -191.07,-8553.81 747.13,-15532.44 647.59,-23963.77 0,-686.44 -556.43,-1242.87 -1242.87,-1242.87 -686.44,0 -1242.87,556.43 -1242.87,1242.87zm496.48 27998.04c299.12,237.45 558.28,532.01 716.79,698.16l-383.62 -6.54 -267.05 -390.16c0,-107.68 -23.68,-209.82 -66.12,-301.47z"/>
  </g>
  <path class="fil2" d="M132293.67 25910.72c0,6138.99 -482.17,11650.26 -996.05,17674.53 -114.35,1340.44 767.48,11726.24 -384.36,11368.9 -48.11,-187.12 -18.38,-535.95 -18.38,-743.92"/>
  <g id="_861982072">
   <path class="fil1 str1" d="M135877.85 25367.36c-5828.89,-3194.39 -12070.51,-6147.87 -17632.84,-9513.59 -5390.51,-3261.74 -10692.45,-6019.1 -16521.95,-8446.62 -473.17,-171.95 -996.17,72.28 -1168.12,545.45 -171.95,473.17 72.28,996.17 545.45,1168.12 5720.47,3962.98 9975.66,5848.75 15589.92,9245.92 5470.44,3310.21 12055.71,6488.19 17829.71,9594.02 716.17,374.98 1600.59,98.43 1975.57,-617.74 374.98,-716.17 98.43,-1600.59 -617.74,-1975.57z"/>
  </g>
  <path class="fil2" d="M135198.93 26664.01c-4517.68,-2365.11 -7292.19,-4246.81 -12239,-6419.37 -3183.29,-1397.92 -7556.53,-4763.27 -11719.46,-6591.44 -2769.94,-1216.35 -7744.02,-4631.78 -9828.75,-5389.27"/>
  <g id="_861983104">
   <path class="fil1 str1" d="M137882.77 23497.63c-6061.53,-3332.91 -13143.28,-6624.62 -18767.54,-10410.1 -4726.76,-3181.44 -9755.24,-5033.78 -13260.59,-7553.44 451.46,661.15 197.73,2043.53 -804.61,1840.75l-87.45 -136.18c503.39,0 911.55,-408.16 911.55,-911.55 0,-503.39 -408.16,-911.55 -911.55,-911.55 -1023.43,-626 -2361.9,1204.39 -440.24,2526.2 3758.1,2585.16 8250.12,4139.49 13069.52,7382.97 5727.37,3854.43 13045.1,7291.2 19227.38,10631.76 679.04,293.7 1467.49,-18.63 1761.19,-697.67 293.7,-679.04 -18.63,-1467.49 -697.67,-1761.19z"/>
  </g>
  <path class="fil2" d="M137351.01 24727.05c-2987.41,-1292.09 -5486.23,-3330.07 -9290.7,-5048.09 -5478.95,-2474.03 -8226.93,-4419 -12955.42,-7728.97 -685.08,-479.46 -11645.82,-5622.9 -10142.31,-5622.9"/>
  <g id="_861956128">
   <path class="fil1 str1" d="M98934.86 10980.22c1378.19,12965.29 -139.51,34072.64 -384.6,47681.2 -44.16,2452.93 -379.05,7933.11 88.57,10662.23 -257.18,255.33 -305.41,285.68 -499.57,575.06 984.21,-1360.92 2837.78,152.09 2420.98,748.86 -322.81,-542.25 361.41,-21.83 -781.67,-619.71 0,-286.54 -232.39,-518.93 -518.93,-518.93 -286.54,0 -518.93,232.39 -518.93,518.93l-692.73 316.15c-215.99,586.53 -182.56,1078.32 403.97,1501.91 4011.83,2897.11 2902.42,-12464.12 2913.15,-13073.59 227.58,-12835.03 1877.63,-36612.41 156.16,-48490.25 -192.8,-714.19 -928.08,-1136.91 -1642.28,-944.12 -714.19,192.8 -1136.91,928.08 -944.12,1642.28z"/>
  </g>
  <path class="fil2" d="M100228.05 10631.14c1309.11,4851.59 -107.56,35136.41 -107.56,42340.16 0,4265.19 -365.49,7197.09 -205.99,11578.1 23.93,659.55 -314.91,5785.47 -332.06,5801.26 -413.34,379.42 -322.81,750.71 -322.81,-322.81"/>
  <g id="_861956296">
   <path class="fil1 str1" d="M101796.32 6264.19c-17595.1,-259.16 -35323.04,-2586.15 -53059.74,-2641.78 -13620.52,-42.68 -23527.72,-663.37 -36998.25,-1782.9 -1557.29,-129.39 -3216.71,-126.68 -4779.92,-149.13 -790.05,0 -1430.36,630.56 -1430.36,1408.53 0,777.97 640.31,1408.53 1430.36,1408.53 4284.92,61.8 4604.27,228.07 9370.01,713.21 12772.37,1300.35 24725.08,988.52 37436.51,1223.75 15495.68,286.66 33679.28,2948.43 48709.81,2528.05 759.59,-184.53 1223.38,-940.29 1036.01,-1688.16 -187.37,-747.87 -954.97,-1204.63 -1714.44,-1020.1z"/>
  </g>
  <path class="fil2" d="M102135.53 7618.32c-1936.34,470.33 -42656.8,-2582.45 -48370.6,-2582.45 -13025.61,0 -29496.62,-32.81 -42226.43,-1801.65 -652.89,-90.66 -3790.29,-135.31 -4580.1,-135.31"/>
  <g id="_861965008">
   <path class="fil1 str1" d="M133976.9 56689.31c-2116.31,584.8 -10039.93,3129.38 -11449.69,3700 -821.39,332.43 -24516.37,10054.11 -23629.86,13132.18 65.13,225.73 153.94,322.56 286.17,514.99 184.04,533.73 765.88,817.07 1299.61,633.03 533.73,-184.04 817.07,-765.88 633.03,-1299.61 320.96,338.35 350.31,449.24 363.63,903.66 1531.51,-1448.74 14831.45,-7779.42 15915.94,-8294.4 7377.05,-3503.13 5657.56,-2914.38 12346.07,-4729.23 1673.98,-454.3 2901.43,-1207.1 4585.9,-1737.63 779.57,-96.83 1332.92,-807.32 1236.09,-1586.89 -96.83,-779.57 -807.32,-1332.92 -1586.89,-1236.09z"/>
  </g>
  <path class="fil2" d="M134152.31 58100.8c-1808.68,224.87 -3356.1,1864.31 -7424.67,2250.39 -1769.57,168 -18257.36,8214.97 -19691.3,9047.95 -1048.47,608.98 -7203.13,3390.27 -6886.49,4304.04"/>
  <g id="_861965608">
   <path class="fil1 str1" d="M106189.05 32366.84c-347.85,3780.79 -1809.17,7691.35 2145.79,6958.77 2509.3,-464.78 3631.42,1731.71 3375.71,-2869.24 -96.46,-1735.65 1803.5,-6167.24 -3056.11,-5156.63 -261.87,-245.96 -614.16,-396.57 -1001.72,-396.57 -808.31,0 -1463.67,655.36 -1463.67,1463.67zm2750.08 1935.23l107.19 -16.28c-129.15,764.15 -222.03,1310.22 -186.5,2033.42 -32.69,-1.73 -65.25,-2.96 -97.82,-3.82 42.93,-630.07 111.01,-1343.77 177.13,-2013.31zm-213.27 3391.62c3.82,32.93 6.41,66.49 7.28,100.78 -2.84,-31.82 -5.18,-65.62 -7.28,-100.78z"/>
  </g>
  <path class="fil2" d="M107652.72 32366.84c0,749.1 -629.21,5893.65 -322.93,5739.83 2023.92,-1015.91 3664.1,1103.98 3040.57,-977.67 -431.85,-1441.83 721.72,-4331.67 89.18,-4331.67 -759.22,0 -4004.55,107.56 -869.99,107.56"/>
  <g id="_861967000">
   <path class="fil1 str1" d="M97922.28 69565.41c-8164.52,-114.35 -14806.04,-1242.5 -23516.75,-1257.43 -17967.74,-30.71 -35481.42,-202.42 -53434.35,-910.81 -437.15,-17.27 -23464.94,-1609.71 -20695.49,3047.97 340.45,572.59 859.87,817.69 1437.27,464.66l7.28 -381.03c395.58,-31.08 691.01,-376.83 659.92,-772.42 -31.08,-395.58 -376.83,-691.01 -772.42,-659.92l-141.98 -364.13 192.67 -193.66c1669.41,123.47 1039.96,1448.5 664.48,2247.19 2955.58,-1654.86 19298.06,-770.32 23065.53,-592.33 18478.28,873.07 36863.06,150.36 55148.3,688.17 6859.11,201.8 10445.99,1371.77 17692.91,899.84 611.94,-84.86 1039.22,-649.81 954.36,-1261.74 -84.86,-611.94 -649.81,-1039.22 -1261.74,-954.36z"/>
  </g>
  <path class="fil2" d="M98075.97 70673.46c-4734.78,656.84 -11773.11,-1076.1 -17539.22,-1076.1 -16357.9,0 -32695.44,-102.26 -49039.16,-421.12 -4159.72,-81.16 -27176.04,-1805.72 -30039.48,565.68 0,115.21 105.46,78.57 205.87,70.68"/>
  <g id="_184741800">
   <path class="fil1 str1" d="M4576.03 3659.05c-311.7,4801.02 -847.54,8600.68 -929.56,13573.65 -189.96,11507.17 -1307.01,22138.68 -1236.33,33861.22 18.13,3014.05 -297.4,13149.7 291.23,17164.85 -29.48,56.12 -69.08,132.85 -130.13,244.23l168.37 0c73.15,438.01 158.87,789.93 259.28,1032.44 1376.58,570.25 688.29,570.25 2064.87,0l427.65 -1032.44c5.92,-3510.04 -21.96,-6985.91 -59.7,-10494.96 -150.36,-13989.46 750.46,-27163.7 724.68,-40906.09 -9.13,-4853.32 680.27,-8881.18 558.28,-13702.18 -71.54,-590.6 -608.36,-1011.22 -1198.96,-939.68 -590.6,71.54 -1011.22,608.36 -939.68,1198.96z"/>
  </g>
  <path class="fil2" d="M5645.35 3529.41c262.73,2166.39 -976.68,9167.6 -743.92,13637.91 322.44,6193.02 -844.33,16571.91 -968.54,23368.23 -174.05,9520.25 98.43,18547.48 98.43,27967.45 0,-244.97 0,-489.82 0,-734.79"/>
  <g id="_184741752">
   <path class="fil1 str1" d="M104424.53 3754.4c-24403.38,3.95 -46191.38,-208.58 -70609.2,-2062.65 -9118.5,-692.49 -17312.75,-1125.07 -26428.29,-1406.68 -786.23,-24.3 -1575.42,-213.02 -2200.07,-237.32l-49.34 47.12c-4.44,369.06 193.54,214.01 438.26,504.5 -182.43,-160.48 -421.61,-257.8 -683.73,-257.8 -572.1,0 -1035.77,463.67 -1035.77,1035.77 149.25,529.91 774.27,1468.48 1459.6,1411.37 9032.04,-752.56 19233.8,443.2 28328.12,1133.71 24595.56,1867.76 46195.08,2183.54 70780.41,2179.59 648.33,0 1173.8,-525.47 1173.8,-1173.8 0,-648.33 -525.47,-1173.8 -1173.8,-1173.8z"/>
  </g>
  <path class="fil2" d="M104424.53 4928.19c-15319.54,0 -31772.67,50.7 -47013.14,-565.56 -15525.78,-627.85 -31837.55,-2522.38 -47363.58,-2994.56 -173.55,-5.3 -5159.84,133.59 -5155.65,9.25"/>
  <g id="_184740432">
   <path class="fil1 str1" d="M83841.17 22092.43c160.48,6335.36 -279.88,11137.37 53.66,17852.53 477.61,9619.8 -308.5,19958.48 -933.26,29614.05 -54.52,841.12 -125.32,525.84 -39.47,862.71 698.04,-703.22 -387.32,-291.23 820.4,-749.97 -50.7,77.96 -80.18,171.09 -80.18,271l-697.42 482.67c-112.12,890.58 62.29,751.2 966.32,1461.57l1264.21 -487.11c1175.4,-1048.47 1265.44,-29042.44 1127.17,-31568.4 -366.1,-6691.85 139.88,-11690.22 -122.73,-18019.79 -77.59,-651.29 -668.43,-1116.56 -1319.72,-1038.97 -651.29,77.59 -1116.56,668.43 -1038.97,1319.72zm449.61 47370.36l135.81 -52.18c600.34,470.83 935.73,456.27 995.06,1072.28 -197.98,-337.61 -26.03,-81.78 -764.4,-540.15 0,-229.31 -155.3,-422.35 -366.47,-479.95z"/>
  </g>
  <path class="fil2" d="M85020.51 21952.05c555.44,4669.4 -778.83,10255.79 -70.68,15817.5 518.56,4073.25 259.03,21910.24 -332.06,25833.99 -178.49,1184.65 -458,9482.26 -458,6339.19"/>
  <g id="_184741416">
   <path class="fil1 str1" d="M84959.21 19335.81c-6477.09,-157.27 -13048.06,-1146.29 -19316.44,-1195.26 -15214.32,-118.79 -30682.99,129.64 -45880.17,-160.23 -741.83,-14.06 -1290.61,-85.85 -1905.26,-132.85l67.23 18.38 -5.43 79.56c-83.26,-17.64 -169.36,-27.01 -257.8,-27.01 -32.93,-42.43 -52.67,-69.82 -65.87,-88.94 -165.04,-9.87 -337.24,-17.39 -520.54,-21.09l-178.49 2627.72c362.89,98.68 484.02,191.19 666.09,47.86l-66.98 -3.33 79.07 -6.41c27.14,-22.45 55.63,-50.33 86.71,-83.88 30.84,0 61.55,-1.11 91.77,-3.33l-1.6 24.18 1968.17 109.78c14901.39,418.77 30874.56,-42.19 45923.1,77.71 6412.09,51.07 12974.54,1066.97 19654.42,1171.82 672.26,-93.38 1141.72,-714.07 1048.35,-1386.33 -93.38,-672.26 -714.07,-1141.72 -1386.33,-1048.35zm-67101.87 -1488.34c-85.85,-6.54 -172.81,-12.71 -261.87,-18.01 -24.55,-35.28 -26.89,-40.95 -50.7,-56.37 166.52,35.52 -102.38,-38.86 312.57,74.38zm-294.81 2636.48l12.09 -9.74c68.71,-5.43 59.95,-3.21 172.57,0.25l-1.23 18.5 -183.42 -9zm-17.76 -2710.86l-58.71 -36.26c-2.71,11.96 -1.23,4.56 -3.95,22.33l62.66 13.94zm206.73 2638.08l-1.11 16.53 -55.51 -19.74 56.62 3.21zm-1.11 16.53l-3.21 46.75 144.32 3.58 -141.11 -50.33z"/>
  </g>
  <path class="fil2" d="M85128.2 20553.15c-2037,282.84 -15456.46,-1183.54 -19485.43,-1183.54 -4359.55,0 -6764.13,497.47 -11790.14,70.68 -3990.86,-338.84 -35049.08,-9.13 -35653.37,-258.29 -138.15,-56.86 -1286.04,-27.63 -537.93,-27.63"/>
  <g id="_184741128">
   <path class="fil1 str1" d="M17080.73 18707.83c38.36,7951.12 549.4,9743.76 -450.72,17982.66 -729.37,6009.1 -1180.21,14916.68 -1158.99,20948.85 0.12,21.96 -510.05,8060.9 -509.8,8062.38 65.01,330.33 162.33,574.44 285.43,780.56 -1169.48,1924.13 5974.32,2485.25 2326.62,-1319.72 665.1,-4095.09 538.42,-2434.06 521.15,-7561.95 -20.11,-5940.28 261.01,-14607.94 954.73,-20473.46 1016.15,-8592.79 638.21,-10065.34 268.66,-18387.25 8.88,-617.74 -484.76,-1125.69 -1102.5,-1134.57 -617.74,-8.88 -1125.69,484.76 -1134.57,1102.5zm-1119.89 48616.19c60.19,64.88 122.12,133.46 185.52,207.35 -74.13,-56.74 -135.81,-127.17 -185.52,-207.35zm1439 -1588.87l547.43 543.73 -139.51 17.39 -377.2 -334.77c0,-78.33 -10.73,-154.31 -30.71,-226.35zm151.72 -438.14c6.91,95.97 -8.88,182.06 -48.97,304.43l48.97 -304.43z"/>
  </g>
  <path class="fil2" d="M18199.26 18723.87c-111.38,7754.87 1216.35,9455 -359.69,18184.95 -716.29,3967.54 -100.78,8117.4 -968.42,13010.68 -496.85,2802.51 454.79,12671.96 -581.1,15181.14 -412.48,999.38 1941.52,1872.45 313.68,1497.22 -46.5,-195.88 -18.5,-432.09 -18.5,-636.36"/>
  <g id="_183349192">
   <path class="fil1 str1" d="M49537.86 19583.74c-342.67,8445.63 -534.72,14212.72 -293.57,22732.86 221.04,7808.78 -392.75,14994.02 -1304.92,22693.39 -9.5,80.67 -383.12,2453.67 -141.61,2938.93l16.78 -70.68 141.98 -26.15c-233.87,181.94 -156.65,245.84 -2.1,780.8l2267.91 -422.6c56.37,-324.66 43.67,-39.97 86.96,-593.56 687.18,-8797.42 1821.75,-16426.48 1433.57,-25572.74 -359.07,-8461.3 -117.06,-14144.63 -22.94,-22460.26 0,-602.56 -488.46,-1091.03 -1091.03,-1091.03 -602.56,0 -1091.03,488.46 -1091.03,1091.03zm138.89 47950.6l404.22 -74.63c148.39,508.2 165.78,328.48 142.59,526.7l-7.15 4.69c-245.84,-253.73 -79.44,-99.67 -538.42,-416.55 0,-13.45 -0.37,-26.89 -1.23,-40.21z"/>
  </g>
  <path class="fil2" d="M50628.89 19583.74c0,7791.75 -1026.02,14436.85 -135.31,22596.56 273.22,2502.89 -401.38,19003.26 -1039.1,21385.39 -432.83,1616.74 -439.62,5897.47 -439.62,4008.87"/>
  <g id="_183350224">
   <path class="fil1 str1" d="M21232.93 34756.74c-143.95,1701.24 -604.54,3689.14 -383.99,5460.57l-10.98 8.63 -38.24 411.99 115.83 0c65.13,336.37 158.87,663.13 288.64,976.44 1301.96,539.28 650.92,539.28 1952.87,0 328.36,-792.52 410.26,-770.81 404.34,-976.44l0.12 0c200.81,-3736.26 124.09,-1776.11 212.41,-5881.19 0,-701.74 -568.77,-1270.5 -1270.5,-1270.5 -701.74,0 -1270.5,568.77 -1270.5,1270.5z"/>
  </g>
  <path class="fil2" d="M22503.43 34756.74c0,2066.35 -322.81,4256.92 -322.81,5881.19 0,-274.58 0,-549.28 0,-823.85"/>
 </g>
</svg>
