<?xml version="1.0" encoding="UTF-8"?>
<!DOCTYPE svg PUBLIC "-//W3C//DTD SVG 1.1//EN" "http://www.w3.org/Graphics/SVG/1.1/DTD/svg11.dtd">
<!-- Creator: CorelDRAW Home & Student X8 -->
<svg xmlns="http://www.w3.org/2000/svg" xml:space="preserve" width="100mm" height="100mm" version="1.1" style="shape-rendering:geometricPrecision; text-rendering:geometricPrecision; image-rendering:optimizeQuality; fill-rule:evenodd; clip-rule:evenodd"
viewBox="0 0 10000 10000"
 xmlns:xlink="http://www.w3.org/1999/xlink">
 <defs>
  <style type="text/css">
   <![CDATA[
    .fil0 {fill:black}
    .fil1 {fill:white}
   ]]>
  </style>
 </defs>
 <g id="Layer_x0020_1">
  <metadata id="CorelCorpID_0Corel-Layer"/>
  <rect class="fil0" x="31" y="7822" width="3175" height="1800"/>
  <rect class="fil0" x="5984" y="7756" width="3958" height="1800"/>
  <g id="_111577400">
   <polygon class="fil0" points="4884,3359 5848,1760 5091,8668 3902,9884 "/>
   <g>
    <path class="fil0" d="M3259 1641c96,-934 748,-1631 1456,-1555 709,75 1206,894 1111,1828 -96,934 -748,1631 -1457,1555 -709,-75 -1206,-894 -1110,-1828zm661 70c46,-453 363,-791 706,-754 344,37 585,434 539,887 -47,453 -363,790 -707,754 -343,-37 -584,-434 -538,-887z"/>
    <circle class="fil1" transform="matrix(0.835023 -0.407258 -0.468443 -0.769178 5162.46 4443.58)" r="221"/>
    <circle class="fil1" transform="matrix(0.276091 -0.831762 0.909495 0.277355 5178.88 4457.67)" r="221"/>
   </g>
   <g>
    <polygon class="fil0" points="6427,4408 7758,3062 894,5912 31,7332 "/>
    <path class="fil0" d="M8727 5279c930,-380 1434,-1168 1125,-1762 -310,-593 -1315,-766 -2245,-387 -931,380 -1434,1168 -1125,1761 309,594 1314,767 2245,388zm-289 -554c452,-184 696,-566 546,-854 -150,-287 -638,-372 -1089,-188 -451,185 -695,567 -545,855 150,287 637,371 1088,187z"/>
    <circle class="fil1" transform="matrix(0.146361 -0.85622 0.944904 0.164065 5219.48 4509.67)" r="221"/>
    <circle class="fil1" transform="matrix(0.766018 -0.504093 -0.582739 -0.704035 5199.62 4499.85)" r="221"/>
   </g>
  </g>
 </g>
</svg>
