<?xml version="1.0" encoding="UTF-8"?>
<!DOCTYPE svg PUBLIC "-//W3C//DTD SVG 1.1//EN" "http://www.w3.org/Graphics/SVG/1.1/DTD/svg11.dtd">
<!-- Creator: CorelDRAW Home & Student 2018 -->
<svg xmlns="http://www.w3.org/2000/svg" xml:space="preserve" width="29.6763mm" height="27.3259mm" version="1.1" style="shape-rendering:geometricPrecision; text-rendering:geometricPrecision; image-rendering:optimizeQuality; fill-rule:evenodd; clip-rule:evenodd"
viewBox="0 0 735.82 677.55"
 xmlns:xlink="http://www.w3.org/1999/xlink">
 <defs>
  <style type="text/css">
   <![CDATA[
    .str1 {stroke:black;stroke-width:4.96;stroke-miterlimit:22.9256}
    .str0 {stroke:black;stroke-width:4.96;stroke-miterlimit:22.9256}
    .str2 {stroke:red;stroke-width:6.2;stroke-miterlimit:22.9256;stroke-dasharray:12.397503 30.993758}
    .fil2 {fill:none}
    .fil1 {fill:black}
    .fil0 {fill:#CCCCFF}
   ]]>
  </style>
 </defs>
 <g id="Layer_x0020_1">
  <metadata id="CorelCorpID_0Corel-Layer"/>
  <polygon class="fil0 str0" points="311.75,357.45 729.83,101.67 414.95,5.53 8.33,236.62 "/>
  <g id="_862037736">
   <path class="fil1" d="M661.51 107.04c-92.07,-23.59 -158.58,-46.06 -246.91,-75.35 -2.13,0 -3.85,1.72 -3.85,3.85 0,2.13 1.73,3.85 3.85,3.85 88.15,30.65 154.96,52.28 246.91,75.35 2.13,0 3.85,-1.72 3.85,-3.85 0,-2.13 -1.73,-3.85 -3.85,-3.85z"/>
  </g>
  <path class="fil2" d="M661.51 110.89c-15.93,0 -69.52,-20.93 -92.16,-25.57 -27.87,-5.72 -69.86,-20.16 -98.61,-29.11 -13.12,-4.08 -48.67,-20.67 -56.14,-20.67"/>
  <g id="_862037664">
   <path class="fil1" d="M611.34 135.73c-4.3,1.67 -199.75,-60.93 -229.5,-69.99 -0.37,-0.39 -0.83,-0.71 -1.37,-0.93 -4.83,-1.92 -8.82,-1.14 -6.65,5.08l1.97 0.74 -0.35 0.47c0,0 2.18,0.87 2.18,0.87 0.76,0.3 1.56,0.35 2.3,0.17 29.92,10.81 60.96,18.36 91.32,27.93 18.66,5.88 129.43,48.38 143.83,42.4 1.86,-1.03 2.53,-3.38 1.5,-5.24 -1.03,-1.86 -3.38,-2.53 -5.24,-1.5z"/>
  </g>
  <path class="fil2" d="M613.21 139.1c-10.24,5.69 -64.59,-18.62 -78.86,-23.03 -41.38,-12.78 -82.38,-26.92 -124.22,-38.28 -2.17,-0.59 -31.82,-8.42 -33.26,-10.28l2.19 0.87"/>
  <g id="_862038264">
   <path class="fil1" d="M548.45 166.58c-26.34,-7.71 -40.33,-18.13 -66.65,-25.47 -52.26,-14.58 -110.73,-27.63 -161.85,-42.99 -0.74,-0.74 -1.79,-1.18 -2.93,-1.13 -1.47,-0.06 -6.7,-2.66 -7.47,2.58 -0.1,0.66 1.46,1.66 4.32,2.91l-0.22 1.49c-0.27,-0 -0.15,0.01 -0.37,-0.03 2.18,0.78 1.67,0.58 4.15,0.74 0.45,-0.02 0.88,-0.12 1.27,-0.29 33.32,12.28 147.17,40.23 161.62,44.27 25.78,7.21 39.91,17.66 67.05,25.54 2.11,0.3 4.06,-1.17 4.35,-3.28 0.3,-2.11 -1.17,-4.05 -3.27,-4.35z"/>
  </g>
  <path class="fil2" d="M547.91 170.39c-19.9,-2.82 -43.44,-20.93 -66.85,-25.5 -34.51,-6.75 -76.24,-23.32 -112.45,-30.24 -16.95,-3.24 -39.01,-8.24 -55.24,-14.52 1.35,-0.1 1.83,0.81 3.86,0.71"/>
  <g id="_862040160">
   <path class="fil1" d="M488.3 202.89c-32.71,-8.7 -196.28,-70.45 -228.14,-79.94 -0.7,-0.76 -1.71,-1.23 -2.83,-1.23 -0.47,0 -0.93,0.01 -1.4,0 0.59,0.05 0.15,0 1.29,0.33l-0 0.08c-0.99,-0.25 -1.71,-0.39 -2.1,-0.41l-0.78 0.19 -0.31 7.14c1.34,0.38 1.57,0.39 2.46,0.38l12.04 4.59c65.68,24.18 155.72,60.16 220.74,76.51 2.11,-0.27 3.61,-2.19 3.34,-4.3 -0.27,-2.11 -2.19,-3.61 -4.3,-3.34z"/>
  </g>
  <path class="fil2" d="M488.79 206.71c-12.53,1.58 -60.86,-19.03 -77.09,-24.43 -19.18,-6.38 -39.23,-15.81 -59.37,-22.97 -23.7,-8.42 -44.2,-15.96 -68.47,-23.93 -0.3,-0.1 -27.74,-9.91 -28.16,-9.85 -0.44,0.07 1.49,0.03 1.65,0.03"/>
  <g id="_862040808">
   <path class="fil1" d="M400.62 233.8c-0.26,-0.02 -127.65,-49.11 -141.37,-53.69 -0.03,-0.01 -54.59,-20.58 -65.75,-23.28 -1.63,-1.16 -3.91,-0.89 -5.2,0.68 -1.36,1.64 -1.13,4.07 0.51,5.43 4.77,3.99 68.36,24.6 68.36,24.6 16.95,5.65 139.2,53.68 144.36,53.92 2.11,-0.25 3.62,-2.17 3.37,-4.28 -0.25,-2.11 -2.17,-3.62 -4.28,-3.37zm-207.63 -77.1c-0.17,-0.04 -0.33,-0.07 -0.47,-0.09 0.24,0.02 0.34,0.04 0.47,0.09z"/>
  </g>
  <path class="fil2" d="M401.07 237.63c-7.22,0.86 -23.25,-9.37 -32.81,-13.14 -38.29,-15.1 -69.85,-29.4 -110.06,-40.67 -14.83,-4.16 -34.32,-13.36 -45.57,-16.06 -6.63,-1.59 -14.99,-7.63 -20.22,-7.41 -0.76,0.03 -0.52,0.14 -1.16,-0.39"/>
  <g id="_862042608">
   <path class="fil1" d="M340.71 282.1c-39.09,-11.49 -72.56,-30.71 -113.89,-44 -5.8,-1.87 -98.79,-29.75 -105.16,-32.2 -0.7,-0.91 -1.81,-1.5 -3.05,-1.5 -2.13,0 -3.85,1.73 -3.85,3.85 0.59,7.8 102.72,34.93 109.72,37.18 42.61,13.71 76.18,33.75 117.17,44.31 2.11,-0.26 3.61,-2.18 3.35,-4.29 -0.26,-2.11 -2.18,-3.61 -4.29,-3.35z"/>
  </g>
  <path class="fil2" d="M341.18 285.93c-9.5,1.17 -74.08,-30.35 -88.78,-35.36 -35.6,-12.12 -71.47,-22.36 -107.23,-34.42 -4.62,-1.56 -26.55,-5.59 -26.55,-7.88"/>
  <g id="_862043256">
   <path class="fil1" d="M641.47 84.62c-57.5,23.48 -112.83,75.44 -182.94,103.76 -57.94,23.4 -111.64,53.94 -167.64,81.71 -1.12,0.56 -37.29,15.37 -51.41,21.69 -0.53,-0.1 -1.09,-0.08 -1.65,0.06 -0.26,0.06 -0.55,0.14 -0.81,0.2 0.33,-0.05 0.08,-0.01 0.82,-0.03l0.26 0.4c-2.35,1.07 -3.86,1.81 -4.15,2.09l3.35 5.2c1.21,-0.04 1.28,-0.09 2.45,-0.39 0.5,-0.13 0.95,-0.34 1.33,-0.63 25.49,-8.74 13.64,-2.05 53.29,-21.71 55.48,-27.51 109.16,-58.09 166.51,-81.25 71.97,-29.06 120.63,-76.28 180.47,-103.39 2.13,0.03 3.88,-1.67 3.91,-3.8 0.03,-2.13 -1.67,-3.88 -3.79,-3.91zm-404.46 207.43l-0.01 0 -0 0 -0.01 0z"/>
  </g>
  <path class="fil2" d="M641.41 88.48c-10.73,-0.16 -67.48,41.55 -80.69,48.59 -36.94,19.68 -59.62,41.67 -101.01,54.99 -32.28,10.39 -49.83,20.45 -78.3,37.26 -16.7,9.86 -34.99,14.65 -54.2,25.61 -17.32,9.89 -51.57,28.16 -70.04,34.74 -0.5,0.18 -25.37,7.71 -18.39,5.92"/>
  <g id="_862043400">
   <path class="fil1" d="M567.75 64.36c-54.57,30.31 -106.67,56.49 -159.09,91.04 -57.24,37.74 -116.55,67.16 -179.6,93.92 -4.63,1.97 -23.03,9.27 -30.66,15.23l-0.04 0.01 0.02 -0c-1.46,1.15 -2.53,2.24 -3.02,3.24l3.22 4.31c2.06,-0.13 1.25,0.07 2.49,-0.33 0.67,-0.24 1.23,-0.65 1.66,-1.16 8.39,-4.81 20.77,-10.57 29.09,-14.11 63.19,-26.87 123.71,-56.85 181.08,-94.67 52.62,-34.69 105.35,-61.09 160,-91.75 1.58,-1.42 1.72,-3.86 0.3,-5.44 -1.42,-1.58 -3.86,-1.72 -5.44,-0.3z"/>
  </g>
  <path class="fil2" d="M570.32 67.22c-10.14,9.08 -61.53,31.51 -78.72,42.17 -40.08,24.85 -69.41,39.79 -108.83,68.61 -13.01,9.51 -34.17,14.35 -52,26.09 -31.23,20.57 -65.54,35.56 -100.34,48.82 -4.87,1.85 -35.86,17.1 -30.67,15.23"/>
  <g id="_862043736">
   <path class="fil1" d="M500.51 46.66c-53.27,35.13 -94.82,63.86 -151.59,93.8 -41.63,21.96 -69.57,39.27 -112.12,60.22 -44.28,21.81 -31.67,17.2 -84.94,36.81 -13.52,4.98 -55.09,21.32 -32.36,21.83 0.46,0.01 1.04,-0.04 1.53,-0.07 1.6,-0.04 2.95,-1.06 3.5,-2.47 63.67,-25.65 -5.84,1.6 65.08,-23.72 24.36,-8.7 29.16,-14.91 50.36,-25.36 42.52,-20.95 70.63,-38.3 112.13,-60.22 57.27,-30.26 99.02,-59.01 152.78,-94.47 1.75,-1.21 2.19,-3.61 0.99,-5.36 -1.21,-1.75 -3.6,-2.19 -5.36,-0.99z"/>
  </g>
  <path class="fil2" d="M502.7 49.84c-22.05,15.18 -44.93,28.79 -66.43,44.44 -16.25,11.83 -32.21,17 -49.38,30.42 -17.19,13.42 -53.99,24.38 -77.46,40.88 -30.09,21.15 -38.19,23.8 -71.04,38.63 -20.82,9.39 -24.02,17.08 -49.92,25.19 -12.76,3.99 -58.18,18.75 -69.82,25.66 0.23,0.65 1.5,0.37 2.28,0.35"/>
  <g id="_862044528">
   <path class="fil1" d="M442.74 28.17c-66.69,38.06 -117.5,83.38 -191.72,117.74 -56.9,26.34 -121.49,60.85 -177.76,85.23 -0.8,0.35 -1.28,0.55 -1.65,0.7 -1.53,-0.74 -3.42,-0.4 -4.58,0.93 -1.36,1.7 -1.99,3.45 -0.8,5.47 0.47,0.8 2.85,0.5 6.73,-0.64 -0.04,0.09 -0.09,0.17 -0.14,0.26l0.02 -0.03c0.07,-0.08 0.14,-0.17 0.21,-0.26 32.9,-9.77 172.73,-80.76 180.76,-84.48 75.06,-34.76 125.05,-79.58 192.16,-117.92 1.93,-0.89 2.78,-3.17 1.9,-5.11 -0.89,-1.93 -3.17,-2.78 -5.11,-1.9z"/>
  </g>
  <path class="fil2" d="M444.35 31.68c-29.87,13.68 -59.14,42.98 -92.17,60.71 -38.52,20.67 -53.99,39.41 -99.77,57.12 -24.42,9.45 -48,24.2 -73.88,35.42 -18.95,8.21 -36.69,17.38 -56.65,25.92 -5.39,2.31 -57.9,31.27 -51.95,24.47"/>
  <g id="_862045608">
   <path class="fil1" d="M724.28 96.08c-0.33,0.04 -199.69,-67.4 -234.99,-75.37 -15.54,-3.51 -49.51,-8.94 -66.73,-15.86 -0.71,-0.84 -1.76,-1.37 -2.94,-1.37 -0.67,0.03 -1.2,0.06 -1.83,0.33 -22.04,9.36 69.59,24.36 69.61,24.37 41.44,9.36 232.53,76.66 239.62,75.11 1.99,-0.75 2.99,-2.98 2.24,-4.97 -0.75,-1.99 -2.98,-2.99 -4.97,-2.24z"/>
  </g>
  <path class="fil2" d="M725.65 99.68c-5.73,2.17 -26.24,-8.46 -33.28,-10.72 -28.17,-9.02 -55.51,-19.22 -83.9,-28.5 -17.47,-5.71 -21.84,-9.08 -41.61,-13.23 -13.06,-2.74 -30.6,-11.33 -47.69,-15.1 -24.08,-5.32 -36.97,-10.42 -63.34,-14.26 -7.39,-1.08 -40.85,-10.53 -36.2,-10.53"/>
  <g id="_862047288">
   <path class="fil1" d="M315.32 355.68c-66.05,-29.22 -111.74,-47.76 -179.76,-72.78 -43.51,-16 -87.1,-35.23 -129.42,-54.17 -1.71,-1.26 -4.12,-0.9 -5.39,0.82 -1.26,1.71 -0.9,4.13 0.82,5.39 42.74,19.47 87.36,39.02 131.42,55.24 68.04,25.03 113.85,43.66 179.95,72.84 2.02,0.66 4.2,-0.45 4.85,-2.47 0.66,-2.02 -0.45,-4.2 -2.47,-4.85z"/>
  </g>
  <path class="fil2" d="M314.13 359.34c-19.32,-6.28 -38.39,-18.84 -56.31,-26.02 -15.05,-6.03 -23.97,-7.36 -39.84,-15.78 -31.07,-16.48 -76.33,-25.77 -111.71,-42.24 -15.82,-7.36 -35.91,-12.24 -52.32,-21.19 -9.51,-5.19 -45.38,-18.82 -50.09,-22.29"/>
  <g id="_862049712">
   <path class="fil1" d="M309.99 365.54c-100.18,-38.16 -204.8,-78.13 -301.36,-124.7 -1.64,-1.36 -4.07,-1.13 -5.43,0.51 -1.36,1.64 -1.13,4.07 0.51,5.42 88.63,43.7 213.73,95.03 306.06,126.46 2.12,0.06 3.9,-1.62 3.96,-3.74 0.06,-2.13 -1.62,-3.9 -3.74,-3.96z"/>
  </g>
  <path class="fil2" d="M309.88 369.39c-3.64,-0.1 -52.69,-22.23 -66.65,-25.92 -13.02,-3.44 -67.2,-24.31 -78.72,-30.75 -16.33,-9.13 -54.35,-21.22 -74.62,-30.56 -15.76,-7.26 -24.81,-9.58 -40.98,-18.77 -9.7,-5.51 -35.48,-13.57 -42.74,-19.58"/>
  <g id="_862051560">
   <path class="fil1" d="M725.76 93.66c-62.02,29.68 -160.32,96.69 -222.69,135.76 -31.1,19.48 -32.24,17.2 -58.09,38.98 -16.86,14.21 -79.7,45.66 -108.31,66.6 -0.02,0.01 -40.58,27.44 -21.03,25.89l0.04 -0c1.59,0 2.95,-0.96 3.54,-2.33l21.44 -16.96c29.31,-21.61 91.49,-52.31 109.41,-67.41 27.11,-22.83 53.26,-36.2 83.92,-55.88 49.16,-31.54 144.44,-93.3 193.86,-117.23 2.05,-0.58 3.24,-2.7 2.67,-4.75 -0.58,-2.05 -2.7,-3.24 -4.75,-2.67zm-407.98 266.02c-0.17,0.16 -0.36,0.32 -0.57,0.45l0.57 -0.45z"/>
  </g>
  <path class="fil2" d="M726.81 97.36c-17.69,4.98 -68.93,42.71 -90.29,53.07 -23.55,11.43 -39.36,28.56 -64.07,40.45 -14.19,6.83 -26.49,15.82 -40.44,24.11 -21.29,12.66 -31.57,22.67 -55.64,34.81 -18.42,9.28 -24.75,19.49 -37.5,28.33 -14.51,10.05 -34.65,15.08 -54.58,29.63 -15.87,11.59 -28.84,20.38 -45.63,30.53 -5.6,3.39 -13.72,13.3 -23.27,18.45 -0.8,0.43 -0.01,0.29 0.29,0.29"/>
  <g id="_862052232">
   <path class="fil1" d="M726.76 104.11c-55.02,37.33 -116.64,70.81 -174.2,109.89 -28.96,19.66 -61.72,36.04 -93.13,56.53 -30.25,19.74 -52.82,31.83 -83.2,53.08 -31.23,21.85 -31.04,14.31 -58.5,40.59 -1.14,1.09 -4.06,3.57 -5.97,3.72 -2.09,-0.39 -4.1,0.98 -4.5,3.07 -0.39,2.09 0.98,4.1 3.07,4.5 5.14,0.48 9.08,-2.23 12.73,-5.74 26.46,-25.43 26.6,-18.17 57.92,-40.09 30.12,-21.07 52.72,-33.15 82.79,-52.78 31.47,-20.55 64.19,-36.89 93.19,-56.58 57.35,-38.93 119.02,-72.42 173.75,-109.6 1.82,-1.1 2.41,-3.46 1.32,-5.28 -1.1,-1.82 -3.46,-2.42 -5.29,-1.32z"/>
  </g>
  <path class="fil2" d="M728.74 107.41c-19,11.41 -22.67,17.81 -47.17,29.23 -2.96,1.38 -40.31,23.47 -43.29,25.45 -24.76,16.49 -45.38,31.43 -71.38,47.14 -19.34,11.69 -23.02,18.13 -47.09,28.31 -16.21,6.86 -23.95,15.76 -39.02,23.88 -10.54,5.68 -27.36,18.44 -39.76,25.97 -13.37,8.11 -30.83,16.63 -42.24,23.98 -14.76,9.5 -24.59,21.15 -43.42,30.27 -12.5,6.06 -24.67,11.99 -32.8,22.93 -2.11,2.84 -7.84,7.84 -11.53,7.14"/>
  <g id="_862052880">
   <path class="fil1" d="M408.84 2.11c-10.37,12.39 -172.65,103.98 -191.28,112.82 -6.39,3.03 -74.48,33.97 -76.57,35.1 -135.16,73.37 24.78,-7.18 -61.89,36.41 0,0 -98.35,46.2 -71,48.08 1.48,0 2.76,-0.84 3.41,-2.06 13.97,-10.72 56.34,-31.74 70.65,-38.94 90.86,-45.77 -70.74,35.63 62.56,-36.74 2.07,-1.12 71.1,-32.5 76.43,-35.03 19.47,-9.24 183.19,-101.41 194.56,-116.15 0.96,-1.9 0.21,-4.22 -1.69,-5.18 -1.9,-0.96 -4.22,-0.21 -5.18,1.69z"/>
  </g>
  <path class="fil2" d="M412.28 3.86c-2.66,5.21 -18.44,11.24 -27.05,18.93 -13.29,11.87 -42.06,21.49 -61.34,35.07 -21.93,15.44 -46.46,33.69 -70.71,43.86 -25.72,10.79 -41.52,22.67 -68.84,32.66 -29.25,10.69 -54.73,25.6 -80,43.43 -13.68,9.65 -32.9,14.47 -49.92,25.1 -7.13,4.46 -49.67,27.77 -46.31,27.77"/>
  <polyline class="fil2 str1" points="22.69,236.12 413.05,14.67 697.44,99.29 308.72,346.98 32.06,236.85 "/>
  <polyline class="fil2 str2" points="730.72,110.71 728.67,449.1 352.93,668.73 "/>
  <line class="fil2 str2" x1="310.33" y1="375.49" x2="317.65" y2= "677.55" />
  <polyline class="fil2 str2" points="10.88,250.29 23.93,553.18 317.52,672.23 "/>
 </g>
</svg>
