<?xml version="1.0" encoding="UTF-8"?>
<!DOCTYPE svg PUBLIC "-//W3C//DTD SVG 1.1//EN" "http://www.w3.org/Graphics/SVG/1.1/DTD/svg11.dtd">
<!-- Creator: CorelDRAW Home & Student X8 -->
<svg xmlns="http://www.w3.org/2000/svg" xml:space="preserve" width="100mm" height="100mm" version="1.1" style="shape-rendering:geometricPrecision; text-rendering:geometricPrecision; image-rendering:optimizeQuality; fill-rule:evenodd; clip-rule:evenodd"
viewBox="0 0 10000 10000"
 xmlns:xlink="http://www.w3.org/1999/xlink">
 <defs>
  <style type="text/css">
    .str0 {stroke:#2B2A29;stroke-width:7.62}
    .str2 {stroke:red;stroke-width:7.62}
    .str1 {stroke:red;stroke-width:300;stroke-dasharray:600.000000 300.000000}
    .fil1 {fill:none}
    .fil0 {fill:black}
    .fil2 {fill:red}
  </style>
 </defs>
 <g id="Layer_x0020_1">
  <metadata id="CorelCorpID_0Corel-Layer"/>
  <path class="fil0 str0" d="M7403 233c1270,0 2300,1029 2300,2300 0,1270 -1030,2300 -2300,2300 -1271,0 -2300,-1030 -2300,-2300 0,-1271 1029,-2300 2300,-2300zm0 1133c644,0 1166,523 1166,1167 0,644 -522,1166 -1166,1166 -644,0 -1166,-522 -1166,-1166 0,-644 522,-1167 1166,-1167z"/>
  <path class="fil1 str1" d="M4638 7934c-54,826 5851,725 3107,-2223 -404,-434 -344,-769 -344,-717"/>
  <polygon class="fil2 str2" points="7403,4172 7647,4685 7891,5198 7403,5198 6914,5198 7159,4685 "/>
  <path class="fil0 str0" d="M2645 4939c1270,0 2300,1030 2300,2300 0,1270 -1030,2300 -2300,2300 -1270,0 -2300,-1030 -2300,-2300 0,-1270 1030,-2300 2300,-2300zm0 1134c644,0 1166,522 1166,1166 0,644 -522,1166 -1166,1166 -644,0 -1166,-522 -1166,-1166 0,-644 522,-1166 1166,-1166z"/>
 </g>
</svg>
