<?xml version="1.0" encoding="UTF-8"?>
<!DOCTYPE svg PUBLIC "-//W3C//DTD SVG 1.1//EN" "http://www.w3.org/Graphics/SVG/1.1/DTD/svg11.dtd">
<!-- Creator: CorelDRAW Home & Student X8 -->
<svg xmlns="http://www.w3.org/2000/svg" xml:space="preserve" width="100mm" height="100mm" version="1.1" style="shape-rendering:geometricPrecision; text-rendering:geometricPrecision; image-rendering:optimizeQuality; fill-rule:evenodd; clip-rule:evenodd"
viewBox="0 0 10000 10000"
 xmlns:xlink="http://www.w3.org/1999/xlink">
 <defs>
  <style type="text/css">
   <![CDATA[
    .str2 {stroke:black;stroke-width:400}
    .str1 {stroke:black;stroke-width:700}
    .str0 {stroke:black;stroke-width:7.62}
    .fil0 {fill:none}
    .fil1 {fill:black}
   ]]>
  </style>
 </defs>
 <g id="Layer_x0020_1">
  <metadata id="CorelCorpID_0Corel-Layer"/>
  <rect class="fil0 str0" x="-500" width="10500" height="10000"/>
  <polygon class="fil0 str1" points="2165,9292 1850,3618 7698,3618 7359,9292 "/>
  <line class="fil0 str2" x1="4774" y1="3668" x2="4774" y2= "9131" />
  <line class="fil0 str2" x1="3085" y1="3668" x2="3502" y2= "9292" />
  <line class="fil0 str2" x1="6463" y1="3668" x2="6046" y2= "9292" />
  <path class="fil0 str1" d="M1440 1552c248,-375 497,-750 829,-889 333,-139 750,-42 1531,133 781,174 1926,426 2688,596 762,170 1141,259 1348,532 208,273 244,730 261,959 18,228 18,228 18,228 0,0 0,0 0,0"/>
  <rect class="fil1" transform="matrix(0.923861 0.215833 -0.207154 0.772781 1207.04 1057.14)" width="8000" height="715" rx="358" ry="358"/>
  <rect class="fil1" transform="matrix(0.834408 0.194934 -0.214419 0.799883 4501.03 77.5418)" width="2020" height="760"/>
  <ellipse class="fil1" cx="4723" cy="9621" rx="2924" ry="197"/>
  <polygon class="fil0 str1" points="2165,9292 1850,3618 7698,3618 7359,9292 "/>
  <line class="fil0 str2" x1="4774" y1="3668" x2="4774" y2= "9131" />
  <line class="fil0 str2" x1="3085" y1="3668" x2="3502" y2= "9292" />
  <line class="fil0 str2" x1="6463" y1="3668" x2="6046" y2= "9292" />
  <path class="fil0 str1" d="M1440 1552c248,-375 497,-750 829,-889 333,-139 750,-42 1531,133 781,174 1926,426 2688,596 762,170 1141,259 1348,532 208,273 244,730 261,959 18,228 18,228 18,228 0,0 0,0 0,0"/>
  <rect class="fil1" transform="matrix(0.923861 0.215833 -0.207154 0.772781 1207.04 1057.14)" width="8000" height="715" rx="358" ry="358"/>
  <rect class="fil1" transform="matrix(0.834408 0.194934 -0.214419 0.799883 4501.03 77.5418)" width="2020" height="760"/>
  <ellipse class="fil1" cx="4723" cy="9621" rx="2924" ry="197"/>
 </g>
</svg>
