<?xml version="1.0" encoding="UTF-8"?>
<!DOCTYPE svg PUBLIC "-//W3C//DTD SVG 1.1//EN" "http://www.w3.org/Graphics/SVG/1.1/DTD/svg11.dtd">
<!-- Creator: CorelDRAW Home & Student X8 -->
<svg xmlns="http://www.w3.org/2000/svg" xml:space="preserve" width="100mm" height="100mm" version="1.1" style="shape-rendering:geometricPrecision; text-rendering:geometricPrecision; image-rendering:optimizeQuality; fill-rule:evenodd; clip-rule:evenodd"
viewBox="0 0 10000 10000"
 xmlns:xlink="http://www.w3.org/1999/xlink">
 <defs>
  <style type="text/css">
   <![CDATA[
    .str1 {stroke:black;stroke-width:400}
    .str0 {stroke:black;stroke-width:700}
    .fil0 {fill:none}
    .fil1 {fill:black}
   ]]>
  </style>
 </defs>
 <g id="Layer_x0020_1">
  <metadata id="CorelCorpID_0Corel-Layer"/>
  <polygon class="fil0 str0" points="2395,9382 2076,3638 7997,3638 7654,9382 "/>
  <line class="fil0 str1" x1="5036" y1="3688" x2="5036" y2= "9219" />
  <line class="fil0 str1" x1="3326" y1="3688" x2="3748" y2= "9382" />
  <line class="fil0 str1" x1="6746" y1="3688" x2="6324" y2= "9382" />
  <path class="fil0 str0" d="M1661 1546c251,-380 503,-760 839,-900 337,-141 759,-43 1550,134 791,176 1950,432 2722,604 771,172 1155,262 1365,538 210,277 247,739 264,971 18,231 18,231 18,231 0,0 0,0 0,0"/>
  <path class="fil1" d="M1760 1123l6813 1592c185,43 301,203 260,358l0 0c-41,154 -225,244 -410,201l-6813 -1592c-185,-43 -302,-203 -260,-358l0 0c41,-154 225,-244 410,-201z"/>
  <rect class="fil1" transform="matrix(0.985952 0.230338 -0.262296 0.978486 4759.95 52.7897)" width="1731" height="629"/>
  <ellipse class="fil1" cx="4985" cy="9716" rx="2961" ry="199"/>
  <polygon class="fil0 str0" points="2395,9382 2076,3638 7997,3638 7654,9382 "/>
  <line class="fil0 str1" x1="5036" y1="3688" x2="5036" y2= "9219" />
  <line class="fil0 str1" x1="3326" y1="3688" x2="3748" y2= "9382" />
  <line class="fil0 str1" x1="6746" y1="3688" x2="6324" y2= "9382" />
  <path class="fil0 str0" d="M1661 1546c251,-380 503,-760 839,-900 337,-141 759,-43 1550,134 791,176 1950,432 2722,604 771,172 1155,262 1365,538 210,277 247,739 264,971 18,231 18,231 18,231 0,0 0,0 0,0"/>
  <path class="fil1" d="M1760 1123l6813 1592c185,43 301,203 260,358l0 0c-41,154 -225,244 -410,201l-6813 -1592c-185,-43 -302,-203 -260,-358l0 0c41,-154 225,-244 410,-201z"/>
  <rect class="fil1" transform="matrix(0.985952 0.230338 -0.262296 0.978486 4759.95 52.7897)" width="1731" height="629"/>
  <ellipse class="fil1" cx="4985" cy="9716" rx="2961" ry="199"/>
 </g>
</svg>
