<?xml version="1.0" encoding="iso-8859-1"?>
<!-- Generator: Adobe Illustrator 18.0.0, SVG Export Plug-In . SVG Version: 6.00 Build 0)  -->
<!DOCTYPE svg PUBLIC "-//W3C//DTD SVG 1.1//EN" "http://www.w3.org/Graphics/SVG/1.1/DTD/svg11.dtd">
<svg version="1.1" id="Capa_1" xmlns="http://www.w3.org/2000/svg" xmlns:xlink="http://www.w3.org/1999/xlink" x="0px" y="0px"
	 viewBox="0 0 56.018 56.018" style="enable-background:new 0 0 56.018 56.018;" xml:space="preserve">
<g>
	<path d="M55.741,53.809l-5.969-6.244c1.746-1.919,2.82-4.458,2.82-7.25c0-5.953-4.843-10.796-10.796-10.796S31,34.362,31,40.315
		s4.843,10.796,10.796,10.796c2.441,0,4.688-0.824,6.499-2.196l6.001,6.277c0.196,0.205,0.459,0.309,0.723,0.309
		c0.249,0,0.497-0.092,0.691-0.277C56.108,54.841,56.123,54.209,55.741,53.809z M41.796,49.111c-4.85,0-8.796-3.946-8.796-8.796
		s3.946-8.796,8.796-8.796s8.796,3.946,8.796,8.796S46.646,49.111,41.796,49.111z"/>
	<path d="M37,27.396v-0.002c1.495-0.56,3.108-0.875,4.796-0.875c6.222,0,11.49,4.142,13.204,9.812V1.519
		c0-0.321-0.154-0.623-0.416-0.812s-0.597-0.241-0.901-0.137l-17.73,5.91L19.229,2.545c-0.076-0.018-0.152-0.026-0.228-0.026
		c-0.048,0-0.094,0.017-0.142,0.024c-0.026,0.004-0.051-0.006-0.076,0l-18,4C0.326,6.645,0,7.05,0,7.519v43
		c0,0.304,0.138,0.59,0.375,0.78c0.179,0.144,0.4,0.22,0.625,0.22c0.072,0,0.145-0.008,0.217-0.023l17.807-3.957l12.772,2.254
		C29.45,47.318,28,43.986,28,40.315C28,34.396,31.754,29.351,37,27.396z M20,45.68V4.782l15,3.529v17.764
		c-5.436,2.604-9,8.16-9,14.24c0,2.338,0.516,4.613,1.493,6.687L20,45.68z"/>
</g>
<g>
</g>
<g>
</g>
<g>
</g>
<g>
</g>
<g>
</g>
<g>
</g>
<g>
</g>
<g>
</g>
<g>
</g>
<g>
</g>
<g>
</g>
<g>
</g>
<g>
</g>
<g>
</g>
<g>
</g>
</svg>
